# xmcd CD database file
#
# Track frame offsets:
#	150
#	14832
#	28575
#	43637
#	57777
#	71073
#	85227
#	98769
#	112700
#	126860
#	140479
#	154358
#	166274
#	178347
#	188586
#	202493
#	216463
#	229779
#	241927
#	255421
#
# Disc length: 3566 seconds
#
# Revision: 1
# Processed by: cddbd v1.5.1PL0 Copyright (c) Steve Scherf et al.
# Submitted via: CDex 1.51
#
DISCID=210dec14
DTITLE=Billy Holiday - Great Lady Day, The  CD 2
DYEAR=2001
DGENRE=Jazz
TTITLE0=If You Were Mine
TTITLE1=Miss Brown To You
TTITLE2=It's Like Reaching For The Moon
TTITLE3=That's Life I Guess
TTITLE4=I Must Have That Man
TTITLE5=This Year's Kisses
TTITLE6=You Showed Me The Way
TTITLE7=Moanin' Low
TTITLE8=Mean To Me
TTITLE9=Foolin' Myself
TTITLE10=I'll Never Be The Same
TTITLE11=Me, Myself And I
TTITLE12=She's Funny That Wa
TTITLE13=Trav'lin All Alone
TTITLE14=They Say
TTITLE15=More Than You Know
TTITLE16=Swing Brother Swing
TTITLE17=I Hear Music
TTITLE18=You're Just A No Account
TTITLE19=Ghost Of Yesterday
EXTD=Digitally Remastered, Two Compact Discs YEAR: 2001
EXTT0=
EXTT1=
EXTT2=
EXTT3=
EXTT4=
EXTT5=
EXTT6=
EXTT7=
EXTT8=
EXTT9=
EXTT10=
EXTT11=
EXTT12=
EXTT13=
EXTT14=
EXTT15=
EXTT16=
EXTT17=
EXTT18=
EXTT19=
PLAYORDER=
